# xmcd
#
# Track frame offsets: 
#        150
#        18333
#        33917
#        53098
#        70807
#        89319
#        100399
#        116829
#
# Disc length: 1716 seconds
#
# Revision: 0
# Processed by: cddbd v1.5.1PL0 Copyright (c) Steve Scherf et al.
# Submitted via: ExactAudioCopy v0.95a5
#
DISCID=6206b208
DTITLE=Various Artist - Heartache and Pain: An Introduction To The Alternative 
DTITLE=Country Of Jamtland
DYEAR=2005
DGENRE=Country
TTITLE0=01 - Our Private Mardi Gras - Former Beauty Queen
TTITLE1=02 - A Typical Syndrome Pt. 2 - Former Beauty Queen
TTITLE2=03 - A Storm Is Coming - Six Figure Transatlantic
TTITLE3=04 - Isabel - Six Figure Transatlantic
TTITLE4=05 - I Don't Wanna Get Back On That Horse Again- Grande Roses
TTITLE5=06 - The Church - Grande Roses
TTITLE6=07 - 2 Am - The Celophane Flower
TTITLE7=08 - What Can This Bring - The Celophane Flower
EXTD=
EXTT0=
EXTT1=
EXTT2=
EXTT3=
EXTT4=
EXTT5=
EXTT6=
EXTT7=
PLAYORDER=
